<svg xmlns="http://www.w3.org/2000/svg" width="41" height="44" viewBox="0 0 41 44">
  <defs>
    <style>
      .cls-1 {
        fill: #BCA32E;
        fill-rule: evenodd;
      }
    </style>
  </defs>
  <path id="Menu-icon" class="cls-1" d="M10.738,39.164a7.554,7.554,0,0,1-.7-7.222c0.814-1.9.287-6.534-.03-8.012l-0.227-.172,0-.313a0.773,0.773,0,0,1,.432-0.793l0.4-.162,0.232,0.22a3.516,3.516,0,0,1,2.635.353A3.129,3.129,0,0,1,14.755,25.4c0.436,3.342,1.328,4.427,2,4.749a2.506,2.506,0,0,0,2.28-.384l0.657,1.1a3.715,3.715,0,0,1-3.514.426c-1.413-.678-2.3-2.551-2.716-5.727a1.95,1.95,0,0,0-.715-1.453,2.079,2.079,0,0,0-1.427-.2c0.446,2.108.767,6.541-.078,8.513a6.3,6.3,0,0,0,.555,5.992ZM1.939,21.7V21.067A18.189,18.189,0,0,1,18.483,3.127a1.26,1.26,0,0,1-.976-0.54,1.121,1.121,0,0,1-.054-1.1A2.52,2.52,0,0,1,18.848.172,6.9,6.9,0,0,1,22.111.165,2.525,2.525,0,0,1,23.53,1.483a1.12,1.12,0,0,1-.053,1.1,1.266,1.266,0,0,1-.973.545A18.192,18.192,0,0,1,39.055,21.058v0.634h-4V20.425h2.684A16.973,16.973,0,0,0,21.246,4.306L20.622,4.28V1.867h1.64a1.3,1.3,0,0,0-.49-0.475,5.527,5.527,0,0,0-2.584.006,1.358,1.358,0,0,0-.469.47h1.643V4.28l-0.624.026A16.967,16.967,0,0,0,3.256,20.432l28.283-.007v1.268ZM34.4,21.068a16.78,16.78,0,0,0-6.3-12.8l0.835-.975A18.036,18.036,0,0,1,35.707,21.05Zm5.164,2.759H1.425A1.565,1.565,0,0,1,0,22.128a1.567,1.567,0,0,1,1.43-1.7H39.567A1.568,1.568,0,0,1,41,22.128,1.565,1.565,0,0,1,39.567,23.827ZM1.425,21.694a0.727,0.727,0,0,0-.125.434,0.56,0.56,0,0,0,.157.436l38.11-.006a0.751,0.751,0,0,0,.127-0.43,0.58,0.58,0,0,0-.149-0.434H1.425ZM18.365,43.939h-1.3V41.192L32.841,24A2.716,2.716,0,0,0,30,24.826c-2.675,2.4-6.937,6.642-6.98,6.684l-0.933-.886c0.043-.043,4.329-4.309,7.029-6.73,2.285-2.051,4.384-1.227,5.175-.5l0.463,0.423L18.365,41.675v2.263Zm5.8-17-0.923-.9,1.568-1.525a4.339,4.339,0,0,1,5.314-1l-0.712,1.063c-0.07-.043-1.756-1.041-3.681.83ZM10.095,44.006l-1.212-.47L10.946,38.5a12.471,12.471,0,0,1,4.789-5.815,9.3,9.3,0,0,0,4.55-6.36c0.532-2.644,1.087-3.4,3.977-3.717l0.918-.1L22.564,33.347l-1.27-.29L23.481,24c-1.4.249-1.543,0.72-1.916,2.577a10.476,10.476,0,0,1-5.107,7.171,11.392,11.392,0,0,0-4.288,5.2Z"/>
</svg>
